<svg id="Layer_1" data-name="Layer 1" xmlns="http://www.w3.org/2000/svg" viewBox="0 0 48 48"><defs><style>.cls-1{fill:#fff;}.cls-2{fill:#13b17c;fill-rule:evenodd;}</style></defs><rect class="cls-1" width="48" height="48"/><path class="cls-2" d="M36.14,26a.66.66,0,0,1,.66.64v7.68a.66.66,0,0,1-1.31,0V26.64A.65.65,0,0,1,36.14,26Zm0-2.55a.64.64,0,1,1-.65.64A.65.65,0,0,1,36.14,23.45Z"/><path class="cls-2" d="M23.08,33.48a9.74,9.74,0,0,0,1.32-.08.59.59,0,0,1,.65.64.67.67,0,0,1-.62.64,9.94,9.94,0,0,1-1.34.08h0a10.88,10.88,0,1,1,11.1-10.88h0a.66.66,0,0,1-.66.64H23.09a.64.64,0,1,1,0-1.28h3.2a3.26,3.26,0,1,0-3.2,3.84,4.65,4.65,0,0,0,.66,0,.62.62,0,0,1,.65.64.66.66,0,0,1-.62.64,6.3,6.3,0,0,1-.75.05,4.48,4.48,0,1,1,4.58-5.12h2a6.52,6.52,0,1,0-6.5,7h0a.64.64,0,1,1,0,1.28H23a7.68,7.68,0,1,1,7.87-8.32h2a9.78,9.78,0,1,0-9.78,10.24Z"/><path class="cls-2" d="M29.61,33.68h0a4.31,4.31,0,0,0,2.49-.79c.81-.6,1.55.44.85,1h0A5.6,5.6,0,0,1,29.61,35h0a4.48,4.48,0,1,1,4.57-4.48h0a.65.65,0,0,1-.65.64H26.41A3.26,3.26,0,0,0,29.61,33.68Zm-3.2-3.84a3.28,3.28,0,0,1,6.4,0Z"/></svg>