<svg id="Layer_1" data-name="Layer 1" xmlns="http://www.w3.org/2000/svg" viewBox="0 0 15.34 8"><path d="M7.67,0C3.5,0,.3,3.67.3,3.67L0,4l.3.33S3.22,7.66,7.11,8A5.24,5.24,0,0,0,8.23,8c3.89-.31,6.82-3.64,6.82-3.64L15.34,4l-.29-.33S11.84,0,7.67,0Zm0,1a7.27,7.27,0,0,1,3,.7A3.5,3.5,0,0,1,8.06,7H8L7.67,7,7.28,7A3.5,3.5,0,0,1,4.66,1.72h0A7.27,7.27,0,0,1,7.67,1Zm0,1a1.5,1.5,0,1,0,1.5,1.5A1.5,1.5,0,0,0,7.67,2ZM3.3,2.47a4.34,4.34,0,0,0-.13,1,4.43,4.43,0,0,0,.69,2.39A11.51,11.51,0,0,1,1.44,4,11.56,11.56,0,0,1,3.3,2.47Zm8.75,0A11.56,11.56,0,0,1,13.91,4a12,12,0,0,1-2.43,1.89,4.43,4.43,0,0,0,.69-2.39A4.92,4.92,0,0,0,12.05,2.47Z"/></svg>