<svg id="Layer_1" data-name="Layer 1" xmlns="http://www.w3.org/2000/svg" viewBox="0 0 28 24.09"><path d="M7.5,0A7.53,7.53,0,0,0,0,7.5a6.49,6.49,0,0,0,1.25,3.56,8.87,8.87,0,0,0,1.22,1.47L13.28,23.38l.72.71.72-.71L25.53,12.53S28,10.36,28,7.5A7.53,7.53,0,0,0,20.5,0,9.14,9.14,0,0,0,14,2.94,9.14,9.14,0,0,0,7.5,0Zm0,2c3,0,5.75,2.91,5.75,2.91l.75.84.75-.84S17.51,2,20.5,2A5.52,5.52,0,0,1,26,7.5c0,1.54-1.87,3.63-1.87,3.63L14,21.25,3.88,11.13a7.83,7.83,0,0,1-1-1.19A4.86,4.86,0,0,1,2,7.5,5.52,5.52,0,0,1,7.5,2Z"/></svg>