<svg id="Layer_1" data-name="Layer 1" xmlns="http://www.w3.org/2000/svg" viewBox="0 0 20.81 19"><path d="M9.29,14.54a1.17,1.17,0,0,0,.33.82,1.08,1.08,0,0,0,1.57,0,1.17,1.17,0,0,0,.33-.82,1.18,1.18,0,0,0-.33-.82,1.08,1.08,0,0,0-1.57,0A1.18,1.18,0,0,0,9.29,14.54Zm.37-7.37v4.46a.2.2,0,0,0,.19.2H11a.2.2,0,0,0,.19-.2V7.17A.2.2,0,0,0,11,7H9.85A.2.2,0,0,0,9.66,7.17ZM20.71,17.84,11.05.39A.73.73,0,0,0,10.41,0a.73.73,0,0,0-.65.39L.1,17.84A.77.77,0,0,0,.74,19H20.07A.77.77,0,0,0,20.71,17.84Zm-18.2-.68,7.9-14.25L18.3,17.16Z"/></svg>