<svg id="Layer_1" data-name="Layer 1" xmlns="http://www.w3.org/2000/svg" viewBox="0 0 27 25.72"><defs><style>.cls-1{fill-rule:evenodd;}</style></defs><path class="cls-1" d="M8.81,2.09a8,8,0,1,0,8,12.17l1.43,1.44c-.14.21-.3.41-.46.61l8,8-1.44,1.44-8-8A10,10,0,1,1,9.43,0,7.53,7.53,0,0,0,8.81,2.09Z"/><path class="cls-1" d="M13.37,7.11h0l5.4,5.42.71.71.71-.71,5.4-5.41h0l.05,0,.15-.17a4.9,4.9,0,0,0,.48-.58A3.81,3.81,0,0,0,27,4.25,4.27,4.27,0,0,0,22.75,0,4.92,4.92,0,0,0,19.5,1.28,4.92,4.92,0,0,0,16.25,0,4.27,4.27,0,0,0,12,4.25a3.76,3.76,0,0,0,.71,2.06,5.11,5.11,0,0,0,.46.59l.16.17Zm6.13-3,.74-.84h0l0,0a1.23,1.23,0,0,1,.16-.15A5.87,5.87,0,0,1,21,2.64,3.27,3.27,0,0,1,22.75,2,2.26,2.26,0,0,1,25,4.25a1,1,0,0,1-.11.41,2.84,2.84,0,0,1-.28.51c-.1.16-.21.3-.29.41l-.1.11,0,0-4.7,4.7L14.79,5.71h0l0,0a.46.46,0,0,1-.1-.1,2.84,2.84,0,0,1-.29-.38A2,2,0,0,1,14,4.25,2.26,2.26,0,0,1,16.25,2,3.27,3.27,0,0,1,18,2.64a5.87,5.87,0,0,1,.58.46,1.23,1.23,0,0,1,.16.15l0,0h0Z"/></svg>