<svg id="Layer_1" data-name="Layer 1" xmlns="http://www.w3.org/2000/svg" viewBox="0 0 16 15.33"><path d="M15.33,12.33H13.56a2.32,2.32,0,0,0-4.45,0H.67a.67.67,0,0,0,0,1.34H9.11a2.32,2.32,0,0,0,4.45,0h1.77a.67.67,0,0,0,0-1.34Zm-4,1.67a1,1,0,1,1,1-1A1,1,0,0,1,11.33,14Z"/><path d="M15.33,1.67H13.56a2.32,2.32,0,0,0-4.45,0H.67A.67.67,0,1,0,.67,3H9.11a2.32,2.32,0,0,0,4.45,0h1.77a.67.67,0,1,0,0-1.33Zm-4,1.66a1,1,0,1,1,1-1A1,1,0,0,1,11.33,3.33Z"/><path d="M15.33,7H6.89A2.32,2.32,0,0,0,2.44,7H.67a.67.67,0,1,0,0,1.33H2.44a2.32,2.32,0,0,0,4.45,0h8.44a.67.67,0,1,0,0-1.33ZM4.67,8.67a1,1,0,1,1,1-1A1,1,0,0,1,4.67,8.67Z"/></svg>