<svg id="Layer_1" data-name="Layer 1" xmlns="http://www.w3.org/2000/svg" viewBox="0 0 190 47.07"><defs><style>.cls-1{fill:none;}</style></defs><path class="cls-1" d="M98.52,30.29h-.11v5.57h.15a2.29,2.29,0,0,0,1.79-.73,2.9,2.9,0,0,0,.66-2,3.1,3.1,0,0,0-.64-2.08A2.31,2.31,0,0,0,98.52,30.29Z"/><path class="cls-1" d="M110.78,29.09A2,2,0,0,0,109,30a4.79,4.79,0,0,0-.64,2.73v.57a5,5,0,0,0,.63,2.74,2.2,2.2,0,0,0,3.63,0,5.11,5.11,0,0,0,.63-2.74v-.57A5,5,0,0,0,112.6,30,2.07,2.07,0,0,0,110.78,29.09Z"/><path class="cls-1" d="M94.2,31a3.07,3.07,0,0,0-.66,2.1,2.9,2.9,0,0,0,.66,2,2.39,2.39,0,0,0,1.85.72h.12V30.29H96A2.31,2.31,0,0,0,94.2,31Z"/><path class="cls-1" d="M121.91,16.11a1.56,1.56,0,0,0-.51-1.23A2,2,0,0,0,120,14.4h-1.9V18H120a2,2,0,0,0,1.42-.5A1.8,1.8,0,0,0,121.91,16.11Z"/><path class="cls-1" d="M80.75,13.28A10.29,10.29,0,0,1,79.5,18h4.3V10.24H80.94Z"/><path class="cls-1" d="M123.31,29.21h-2.13v3.62h2.08a2,2,0,0,0,1.4-.44,1.66,1.66,0,0,0,.49-1.27,1.93,1.93,0,0,0-.49-1.37A1.78,1.78,0,0,0,123.31,29.21Z"/><path class="cls-1" d="M38.11,30.46A7,7,0,0,0,31.19,36H45A7,7,0,0,0,38.11,30.46Z"/><path class="cls-1" d="M173.29,29.09a2.06,2.06,0,0,0-1.81.93,4.87,4.87,0,0,0-.64,2.73v.57a5,5,0,0,0,.63,2.74,2.07,2.07,0,0,0,1.83,1,2,2,0,0,0,1.8-.94,4.94,4.94,0,0,0,.63-2.74v-.57A5,5,0,0,0,175.1,30,2.06,2.06,0,0,0,173.29,29.09Z"/><path class="cls-1" d="M185.81,29.21h-2.13v3.62h2.08a2,2,0,0,0,1.4-.44,1.62,1.62,0,0,0,.49-1.27,1.89,1.89,0,0,0-.49-1.37A1.78,1.78,0,0,0,185.81,29.21Z"/><polygon class="cls-1" points="149.22 34.52 152.04 34.52 150.63 30.2 149.22 34.52"/><polygon points="73.85 17.95 68.62 17.95 68.62 14.86 73.08 14.86 73.08 12.99 68.62 12.99 68.62 10.24 73.84 10.24 73.84 8.31 66.29 8.31 66.29 19.87 73.85 19.87 73.85 17.95"/><path d="M85.11,22.71h2.15L87.44,18H86.13V8.31H78.74l-.33,5.1a12.31,12.31,0,0,1-.51,2.82A3.79,3.79,0,0,1,76.84,18H76l.12,4.74h2.2V19.87h6.8ZM83.8,18H79.5a10.29,10.29,0,0,0,1.25-4.68l.19-3H83.8Z"/><polygon points="97.01 12.19 97.01 19.87 99.34 19.87 99.34 8.31 97.01 8.31 92.5 16 92.5 8.31 90.17 8.31 90.17 19.87 92.5 19.87 97.01 12.19"/><polygon points="109.8 19.87 112.12 19.87 112.12 8.31 109.8 8.31 109.8 12.99 105.27 12.99 105.27 8.31 102.94 8.31 102.94 19.87 105.27 19.87 105.27 14.91 109.8 14.91 109.8 19.87"/><path d="M123.08,18.84a3.47,3.47,0,0,0,1.16-2.71,3.3,3.3,0,0,0-1.17-2.66,4.68,4.68,0,0,0-3.15-1h-1.81V8.31h-2.34V19.87H120A4.57,4.57,0,0,0,123.08,18.84Zm-5-.88V14.4H120a2,2,0,0,1,1.39.48,1.56,1.56,0,0,1,.51,1.23,1.8,1.8,0,0,1-.53,1.35A2,2,0,0,1,120,18Z"/><rect x="125.21" y="8.31" width="2.32" height="11.56"/><path d="M135.7,7.63A2.83,2.83,0,0,0,137.63,7a2.17,2.17,0,0,0,.75-1.71h-1.61a1,1,0,0,1-.29.78,1.09,1.09,0,0,1-.78.27,1.15,1.15,0,0,1-.81-.27,1.06,1.06,0,0,1-.29-.78H133A2.17,2.17,0,0,0,133.75,7,2.93,2.93,0,0,0,135.7,7.63Z"/><polygon points="137.93 12.19 137.93 19.87 140.26 19.87 140.26 8.31 137.93 8.31 133.41 16 133.41 8.31 131.09 8.31 131.09 19.87 133.41 19.87 137.93 12.19"/><polygon points="68.54 34.97 68.54 27.28 66.22 27.28 66.22 38.83 68.54 38.83 73.05 31.16 73.05 38.83 75.39 38.83 75.39 27.28 73.05 27.28 68.54 34.97"/><polygon points="85.84 31.96 81.31 31.96 81.31 27.28 78.98 27.28 78.98 38.83 81.31 38.83 81.31 33.88 85.84 33.88 85.84 38.83 88.16 38.83 88.16 27.28 85.84 27.28 85.84 31.96"/><path d="M100.94,28.91a4.79,4.79,0,0,0-2.39-.6h-.14V26.8H96.17v1.51H96a4.77,4.77,0,0,0-2.37.63,4.38,4.38,0,0,0-1.65,1.71,5.19,5.19,0,0,0-.59,2.48,5,5,0,0,0,.59,2.45,4.28,4.28,0,0,0,1.68,1.67,4.94,4.94,0,0,0,2.41.58h.15v1.48h2.24V37.83a4.71,4.71,0,0,0,3.5-1.31,4.62,4.62,0,0,0,1.3-3.4,5.17,5.17,0,0,0-.6-2.51A4.14,4.14,0,0,0,100.94,28.91Zm-4.77,7h-.12a2.39,2.39,0,0,1-1.85-.72,2.9,2.9,0,0,1-.66-2A3.07,3.07,0,0,1,94.2,31,2.31,2.31,0,0,1,96,30.29h.15Zm4.18-.73a2.29,2.29,0,0,1-1.79.73h-.15V30.29h.11a2.31,2.31,0,0,1,1.85.75,3.1,3.1,0,0,1,.64,2.08A2.9,2.9,0,0,1,100.35,35.13Z"/><path d="M113.28,27.82a4.48,4.48,0,0,0-2.5-.7,4.56,4.56,0,0,0-2.51.7,4.49,4.49,0,0,0-1.69,2,7,7,0,0,0-.6,3v.57a7,7,0,0,0,.61,2.95,4.47,4.47,0,0,0,1.71,2,4.86,4.86,0,0,0,5,0,4.52,4.52,0,0,0,1.69-2,7.15,7.15,0,0,0,.58-3V32.8a7,7,0,0,0-.6-3A4.45,4.45,0,0,0,113.28,27.82Zm0,5.54a5.11,5.11,0,0,1-.63,2.74,2.2,2.2,0,0,1-3.63,0,5,5,0,0,1-.63-2.74v-.57A4.79,4.79,0,0,1,109,30a2.22,2.22,0,0,1,3.62,0,5,5,0,0,1,.63,2.76Z"/><path d="M125.49,27.75a5.08,5.08,0,0,0-2.23-.47h-4.4V38.83h2.32V34.76h2a4.66,4.66,0,0,0,3.14-1,3.39,3.39,0,0,0,1.13-2.69,3.88,3.88,0,0,0-.51-2A3.51,3.51,0,0,0,125.49,27.75Zm-.83,4.64a2,2,0,0,1-1.4.44h-2.08V29.21h2.13a1.78,1.78,0,0,1,1.35.54,1.93,1.93,0,0,1,.49,1.37A1.66,1.66,0,0,1,124.66,32.39Z"/><polygon points="136.62 35.66 133.72 27.28 130.68 27.28 130.68 38.83 133.01 38.83 133.01 35.67 132.78 30.23 135.81 38.83 137.41 38.83 140.45 30.22 140.22 35.67 140.22 38.83 142.55 38.83 142.55 27.28 139.5 27.28 136.62 35.66"/><path d="M149.55,27.28l-4.2,11.55h2.47l.78-2.38h4.07l.78,2.38h2.47L151.7,27.28Zm-.33,7.24,1.41-4.32L152,34.52Z"/><polygon points="156.94 29.21 160.34 29.21 160.34 38.83 162.67 38.83 162.67 29.21 166.12 29.21 166.12 27.28 156.94 27.28 156.94 29.21"/><path d="M175.79,27.82a4.6,4.6,0,0,0-6.71,2,7,7,0,0,0-.6,3v.57a6.88,6.88,0,0,0,.62,2.95,4.51,4.51,0,0,0,1.7,2,4.61,4.61,0,0,0,2.5.69,4.46,4.46,0,0,0,4.2-2.68,7.15,7.15,0,0,0,.59-3V32.8a6.88,6.88,0,0,0-.61-3A4.43,4.43,0,0,0,175.79,27.82Zm-.06,5.54a4.94,4.94,0,0,1-.63,2.74,2,2,0,0,1-1.8.94,2.07,2.07,0,0,1-1.83-1,5,5,0,0,1-.63-2.74v-.57a4.87,4.87,0,0,1,.64-2.73,2.22,2.22,0,0,1,3.62,0,5,5,0,0,1,.63,2.76Z"/><path d="M189.48,29.11A3.45,3.45,0,0,0,188,27.75a5,5,0,0,0-2.23-.47h-4.4V38.83h2.32V34.76h2a4.66,4.66,0,0,0,3.14-1A3.37,3.37,0,0,0,190,31.1,3.88,3.88,0,0,0,189.48,29.11Zm-2.32,3.28a2,2,0,0,1-1.4.44h-2.08V29.21h2.13a1.78,1.78,0,0,1,1.35.54,1.89,1.89,0,0,1,.49,1.37A1.62,1.62,0,0,1,187.16,32.39Z"/><path d="M52.23,27.69a1.4,1.4,0,0,0-1.41,1.39V45.69a1.41,1.41,0,0,0,2.82,0V29.08A1.41,1.41,0,0,0,52.23,27.69Z"/><path d="M52.23,22.17a1.39,1.39,0,1,0,1.41,1.39A1.4,1.4,0,0,0,52.23,22.17Z"/><path d="M24,0A23.77,23.77,0,0,0,0,23.53,23.77,23.77,0,0,0,24,47.07h0a21.45,21.45,0,0,0,2.89-.17,1.45,1.45,0,0,0,1.34-1.38,1.29,1.29,0,0,0-1.41-1.39A22.71,22.71,0,0,1,24,44.3,21,21,0,0,1,2.82,23.53,21,21,0,0,1,24,2.77,21,21,0,0,1,45.12,22.15H40.88A16.81,16.81,0,0,0,24,6.92,16.78,16.78,0,0,0,7.06,23.53,16.78,16.78,0,0,0,23.87,40.15H24a1.39,1.39,0,1,0,0-2.77h0A14,14,0,0,1,9.88,23.53,14,14,0,0,1,24,9.69,14,14,0,0,1,38,22.15H33.78a9.87,9.87,0,1,0-9.91,11.07,12.43,12.43,0,0,0,1.61-.1,1.43,1.43,0,0,0,1.34-1.39,1.34,1.34,0,0,0-1.41-1.38,10.47,10.47,0,0,1-1.41.11,6.92,6.92,0,1,1,6.91-8.31H24a1.39,1.39,0,1,0,0,2.77H46.58A1.4,1.4,0,0,0,48,23.54h0A23.77,23.77,0,0,0,24,0Z"/><path d="M38.11,27.69a9.69,9.69,0,1,0,0,19.38h0a12.14,12.14,0,0,0,7.2-2.35h0c1.51-1.16-.08-3.41-1.83-2.12a9.32,9.32,0,0,1-5.39,1.72h0a7,7,0,0,1-6.92-5.54H46.58A1.4,1.4,0,0,0,48,37.38h0A9.79,9.79,0,0,0,38.11,27.69ZM31.19,36A7.09,7.09,0,0,1,45,36Z"/></svg>