<svg id="Layer_1" data-name="Layer 1" xmlns="http://www.w3.org/2000/svg" viewBox="0 0 18 18.4"><path d="M13.5,0A4.51,4.51,0,0,0,9,4.5a6,6,0,0,0,.66,2.34A25.77,25.77,0,0,0,11,9.4c.95,1.64,1.92,3,1.92,3l.61.89.61-.89s1-1.38,1.92-3a25.77,25.77,0,0,0,1.31-2.56A6,6,0,0,0,18,4.5,4.51,4.51,0,0,0,13.5,0ZM6,1.45,0,4V18.4l6-2.6,6,2.25,6-2.56V9c-.48.92-1,1.8-1.5,2.58v3L12.75,16.1V14.88l-1.1-1.59c-.12-.17-.26-.37-.4-.59v3.47l-4.5-1.69V3.33l.82.3A6,6,0,0,1,8,2.18Zm7.52.05a3,3,0,0,1,3,3A5.39,5.39,0,0,1,16,6.23a25.63,25.63,0,0,1-1.26,2.42c-.61,1-.88,1.43-1.22,1.94-.34-.51-.61-.89-1.22-1.94A25.63,25.63,0,0,1,11,6.23,5.39,5.39,0,0,1,10.5,4.5,3,3,0,0,1,13.5,1.5ZM5.25,3.38V14.51L1.5,16.1V5Zm8.25,0a1.13,1.13,0,0,0,0,2.25,1.13,1.13,0,1,0,0-2.25Z"/></svg>