<svg id="Layer_1" data-name="Layer 1" xmlns="http://www.w3.org/2000/svg" xmlns:xlink="http://www.w3.org/1999/xlink" viewBox="0 0 19.1 20.11"><defs><style>.cls-1{fill:url(#linear-gradient);}</style><linearGradient id="linear-gradient" x1="0.18" y1="12.26" x2="19.32" y2="11.84" gradientTransform="matrix(1, 0, 0, -1, 0, 22.11)" gradientUnits="userSpaceOnUse"><stop offset="0" stop-color="#13b17c"/><stop offset="1" stop-color="#09c"/></linearGradient></defs><path class="cls-1" d="M9.54,0,9,.52l-2,1.89L4.36,2l-.73-.12-.11.73L3.05,5.34.63,6.61,0,7l.3.63,1.2,2.46L.3,12.52l-.3.63.63.35,2.42,1.27.47,2.69.11.73.73-.12,2.69-.37,2,1.89.52.52.51-.52,2-1.89,2.7.37.73.12.11-.73L16,14.79l2.42-1.29.65-.35-.33-.63-1.19-2.47,1.19-2.46L19.1,7l-.65-.35L16,5.32l-.47-2.67-.11-.73L14.72,2,12,2.41l-2-1.89Zm0,2.09,1.71,1.66.26.26.37,0,2.32-.35L14.62,6l.08.35.32.19,2.09,1.13-1,2.11-.17.32.17.33,1,2.11L15,13.62l-.32.18-.08.36L14.2,16.5l-2.32-.35-.37,0-.26.26L9.54,18,7.83,16.36l-.26-.26-.35,0-2.34.35-.43-2.34-.07-.36-.3-.18L2,12.52l1-2.14.17-.33L3,9.73,2,7.59l2.09-1.1.3-.19L4.45,6l.43-2.34L7.22,4l.35,0,.26-.26ZM5,8.55v3h.75V10.31l.75.64v.6h.75v-3H6.54V9.8l-.75-.64V8.55Zm3,0v3h2.25V10.8H8.79v-.37h1.33V9.68H8.79V9.3h1.5V8.55Zm3,0v.38l.87,2.39.11.23h.54l.35-1,.29.75.11.25h.52l.94-2.48,0-.52H14v.31l-.47,1.29-.28-.78-.14-.25h-.52l-.37,1-.47-1.29V8.55Z"/></svg>