<svg id="Layer_1" data-name="Layer 1" xmlns="http://www.w3.org/2000/svg" viewBox="0 0 24 24"><path d="M12,0A5,5,0,0,0,8,2.09,5.09,5.09,0,0,0,7,2,5,5,0,0,0,2.09,8a5,5,0,0,0,0,8.1A5,5,0,0,0,8,21.91a5,5,0,0,0,8.1,0A5.09,5.09,0,0,0,17,22a5,5,0,0,0,4.91-5.95,5,5,0,0,0,0-8.1,5,5,0,0,0-5.86-5.86A5,5,0,0,0,12,0Zm0,2a3,3,0,0,1,2.43,1.26l.75,1,1.25-.25A3.66,3.66,0,0,1,17,4a3,3,0,0,1,2.12.88A3,3,0,0,1,20,7.57L19.7,8.83l1,.74a3,3,0,0,1,0,4.86l-1,.75L20,16.43a3,3,0,0,1-.83,2.69A3,3,0,0,1,17,20a3.66,3.66,0,0,1-.57-.05l-1.25-.25-.75,1a3,3,0,0,1-4.86,0l-.75-1L7.57,20A3.66,3.66,0,0,1,7,20a3,3,0,0,1-2.12-.88,3,3,0,0,1-.83-2.69l.25-1.26-1-.74a3,3,0,0,1,0-4.86l1-.75L4.05,7.57a3,3,0,0,1,.83-2.69A3,3,0,0,1,7,4a3.66,3.66,0,0,1,.57,0l1.25.25.75-1A3,3,0,0,1,12,2Zm3.56,7L11,13.56,8.44,11,7,12.44l3.28,3.28.72.69.72-.69L17,10.44Z"/></svg>