<svg id="Layer_1" data-name="Layer 1" xmlns="http://www.w3.org/2000/svg" xmlns:xlink="http://www.w3.org/1999/xlink" viewBox="0 0 19.5 15"><defs><style>.cls-1{fill:url(#linear-gradient);}</style><linearGradient id="linear-gradient" x1="0.19" y1="9.79" x2="19.72" y2="9.2" gradientTransform="matrix(1, 0, 0, -1, 0, 17)" gradientUnits="userSpaceOnUse"><stop offset="0" stop-color="#13b17c"/><stop offset="1" stop-color="#09c"/></linearGradient></defs><path class="cls-1" d="M0,0V15H19.5V0ZM1.5,1.5H18V11.67L12.16,5.84l-.53-.52-.54.52L9.38,7.55,6.54,4.71,6,4.2l-.54.51-4,4Zm13.13.75A1.88,1.88,0,1,0,16.5,4.13,1.89,1.89,0,0,0,14.63,2.25Zm0,1.5a.38.38,0,1,1-.38.38A.37.37,0,0,1,14.63,3.75ZM6,6.33l2.3,2.3L3.42,13.5H1.5V10.83Zm5.63,1.12,6,6.05H5.58Z"/></svg>