<svg id="Layer_1" data-name="Layer 1" xmlns="http://www.w3.org/2000/svg" viewBox="0 0 13.22 13.92"><path d="M6.35,0a1,1,0,1,0,1,1A1,1,0,0,0,6.35,0Zm4,1.53a1.13,1.13,0,1,0,1.12,1.12A1.13,1.13,0,0,0,10.32,1.53Zm-7.95.25a.84.84,0,0,0,0,1.68.84.84,0,1,0,0-1.68ZM12,5.36a1.27,1.27,0,1,0,1.27,1.27A1.26,1.26,0,0,0,12,5.36ZM.7,5.89a.7.7,0,1,0,0,1.4.7.7,0,1,0,0-1.4Zm9.58,3.3a1.41,1.41,0,1,0,1.41,1.41A1.41,1.41,0,0,0,10.28,9.19ZM2.34,10a.56.56,0,0,0-.56.56.56.56,0,1,0,1.12,0A.56.56,0,0,0,2.34,10Zm4,.55A1.69,1.69,0,1,0,8,12.23,1.69,1.69,0,0,0,6.31,10.55Z"/></svg>