<svg id="Layer_1" data-name="Layer 1" xmlns="http://www.w3.org/2000/svg" viewBox="0 0 21.3 22.54"><path d="M20.46,18.4A10.55,10.55,0,0,0,18.18,15a10.71,10.71,0,0,0-3.39-2.28h0a7,7,0,1,0-8.22,0h0A10.64,10.64,0,0,0,3.12,15,10.64,10.64,0,0,0,0,22.31a.15.15,0,0,0,0,.09.16.16,0,0,0,0,.07l.08.06H1.93a.22.22,0,0,0,.22-.22,8.5,8.5,0,0,1,14.51-5.78,8.41,8.41,0,0,1,2.48,5.78.23.23,0,0,0,.23.22h1.79a.2.2,0,0,0,.07-.06.18.18,0,0,0,.05-.07.29.29,0,0,0,0-.09A10.51,10.51,0,0,0,20.46,18.4Zm-9.81-6.51a4.87,4.87,0,1,1,3.44-1.42A4.86,4.86,0,0,1,10.65,11.89Z"/></svg>