<svg id="Layer_1" data-name="Layer 1" xmlns="http://www.w3.org/2000/svg" viewBox="0 0 21.1 11"><title>Artboard 1</title><path d="M10.55,0C4.82,0,.41,5.05.41,5.05L0,5.5.41,6s4,4.59,9.37,5a7.43,7.43,0,0,0,1.54,0c5.35-.42,9.37-5,9.37-5l.41-.45-.41-.45S16.28,0,10.55,0Zm0,1.38a10,10,0,0,1,4.12,1,4.73,4.73,0,0,1,.69,2.47A4.8,4.8,0,0,1,11.09,9.6H11l-.49,0L10,9.6A4.8,4.8,0,0,1,5.74,4.81,4.85,4.85,0,0,1,6.4,2.36h0A10.07,10.07,0,0,1,10.55,1.38Zm0,1.37a2.07,2.07,0,1,0,2.06,2.06A2.06,2.06,0,0,0,10.55,2.75Zm-6,.64a6.72,6.72,0,0,0-.17,1.42A6.15,6.15,0,0,0,5.31,8.1,15.62,15.62,0,0,1,2,5.5,16.38,16.38,0,0,1,4.53,3.39Zm12,0A16.12,16.12,0,0,1,19.12,5.5a15.91,15.91,0,0,1-3.33,2.6,6.15,6.15,0,0,0,.95-3.29A6.07,6.07,0,0,0,16.56,3.39Z"/></svg>