<svg width="499" height="386" viewBox="0 0 499 386" fill="none" xmlns="http://www.w3.org/2000/svg">
<path opacity="0.2" fill-rule="evenodd" clip-rule="evenodd" d="M489.022 292.723C476.241 285.343 455.519 285.343 442.738 292.723L392.075 321.973L357.748 302.154C344.16 294.309 322.131 294.309 308.543 302.154C294.956 309.999 294.956 322.718 308.543 330.563L342.87 350.381L337.047 353.743C324.266 361.123 324.266 373.087 337.047 380.466C349.828 387.845 370.55 387.845 383.331 380.466L389.154 377.104L389.579 377.349C403.166 385.193 425.196 385.193 438.784 377.349C452.371 369.504 452.371 356.785 438.784 348.94L438.359 348.695L489.022 319.445C501.803 312.066 501.803 300.102 489.022 292.723Z" fill="#050C42"/>
<path d="M428.253 257.893L366.413 263.586L357.615 271.348L398.056 294.377L441.709 265.914L428.253 257.893Z" fill="#13B17C" stroke="white"/>
<rect width="7.03066" height="34.95" transform="matrix(0.866025 -0.5 2.20305e-08 1 361.093 270.385)" fill="#D9F3EB"/>
<rect x="0.866025" y="1.5" width="66.6066" height="32.95" transform="matrix(0.866025 0.5 -2.20305e-08 1 305.516 268.589)" fill="#13B17C" stroke="white" stroke-width="2"/>
<rect width="6.17931" height="17.2349" transform="matrix(0.866025 0.5 -2.20305e-08 1 425.596 263.19)" fill="#D9F3EB"/>
<rect width="146.788" height="34.9873" transform="matrix(0.866025 -0.5 2.20305e-08 1 369.503 335.993)" fill="#D9F3EB"/>
<rect x="0.866025" y="1.5" width="15.4196" height="32.95" transform="matrix(0.866025 0.5 -2.20305e-08 1 395.587 320.597)" fill="#13B17C" stroke="white" stroke-width="2"/>
<path d="M496.631 262.629L461.763 242.498L338.089 250.152L305.4 269.025L364.422 303.101L338.453 318.095L369.507 336.024L395.477 321.031L410.55 329.733L438.154 313.796L423.081 305.093L496.631 262.629ZM367.146 266.928L425.623 263.363L430.708 266.299L393.297 287.898L362.061 269.864L367.146 266.928Z" fill="white"/>
<rect width="31.885" height="34.95" transform="matrix(0.866025 -0.5 2.20305e-08 1 410.556 329.739)" fill="#D9F3EB"/>
<rect x="0.866025" y="1.5" width="33.865" height="32.95" transform="matrix(0.866025 0.5 -2.20305e-08 1 338.563 317.66)" fill="#13B17C" stroke="white" stroke-width="2"/>
<rect opacity="0.2" width="121.541" height="58.6682" rx="29.3341" transform="matrix(0.866025 0.5 -0.866025 0.5 201.63 209.621)" fill="#050C42"/>
<path d="M198.847 79.9021L180.324 90.7344C178.563 98.3406 192.846 116.406 192.846 127.453C192.846 153.036 183.403 192.999 192.846 211.243C202.29 229.277 233.519 246.829 248.956 255.741L282.73 236.267C292.173 228.928 295.998 212.591 295.998 187.007C295.998 161.424 291.276 139.615 281.833 121.581C272.389 103.547 259.859 90.0211 244.422 81.1088C228.986 72.1966 207.999 74.6066 198.847 79.9021ZM253.418 173.222C253.418 202.16 257.134 207.977 244.422 200.638C231.71 193.298 225.353 175.159 225.353 146.221C225.353 117.492 221.938 114.241 234.651 121.581C247.363 128.92 253.418 144.493 253.418 173.222Z" fill="white"/>
<path fill-rule="evenodd" clip-rule="evenodd" d="M193.007 211.521L233.102 188.372C227.945 178.703 225.367 164.652 225.367 146.221C225.367 140.193 225.216 135.287 225.096 131.365C224.996 128.106 224.917 125.527 224.962 123.548L192.103 122.131L192.103 122.733C192.58 124.366 192.859 125.95 192.859 127.453C192.859 132.07 192.552 137.155 192.103 142.496L192.103 209.644C192.34 210.194 192.592 210.727 192.859 211.243C192.908 211.335 192.957 211.428 193.007 211.521Z" fill="#D9F3EB"/>
<path fill-rule="evenodd" clip-rule="evenodd" d="M284.893 127.916L251.116 147.417C252.664 154.513 253.424 163.041 253.424 173.222C253.424 179.591 253.604 184.841 253.749 189.077C254.264 204.084 254.342 206.362 244.428 200.638C242.899 199.755 241.463 198.717 240.118 197.522L240.118 249.909C242.588 251.347 244.922 252.681 247.051 253.898C248.421 254.681 249.705 255.416 250.886 256.098L282.906 237.672C291.011 233.005 296.004 212.591 296.004 187.007C296.004 164.35 292.3 144.652 284.893 127.916Z" fill="#D9F3EB"/>
<path d="M176.605 210.007L176.607 210.011C186.127 228.19 198.782 241.866 214.404 250.886C229.983 259.88 242.999 261.032 252.917 253.544L252.929 253.535C257.875 249.691 261.504 243.549 263.9 235.224C266.296 226.897 267.48 216.31 267.48 203.466C267.48 177.762 262.736 155.785 253.201 137.576C243.682 119.397 231.026 105.721 215.404 96.7017C199.825 87.7072 186.809 86.5554 176.891 94.0436C171.935 97.7849 168.304 103.881 165.909 112.179C163.512 120.481 162.328 131.068 162.328 143.911C162.328 169.617 167.073 191.591 176.605 210.007ZM232.973 184.698C232.973 191.901 232.577 197.945 231.793 202.843C231.008 207.753 229.843 211.448 228.344 213.995C226.856 216.522 225.086 217.85 223.068 218.216C221.011 218.59 218.479 218.006 215.404 216.231C209.312 212.714 204.67 206.572 201.546 197.657C198.419 188.733 196.836 177.087 196.836 162.68C196.836 155.53 197.231 149.525 198.015 144.657C198.8 139.777 199.965 136.102 201.463 133.569C202.95 131.054 204.72 129.732 206.739 129.368C208.796 128.998 211.33 129.582 214.404 131.357C220.496 134.874 225.138 141.016 228.262 149.905C231.389 158.803 232.973 170.396 232.973 184.698Z" fill="#13B17C" stroke="white" stroke-width="2"/>
<rect opacity="0.2" width="123.358" height="58.6682" rx="29.3341" transform="matrix(0.866025 0.5 -0.866025 0.5 51.7144 123.634)" fill="#050C42"/>
<rect x="0.433013" y="0.25" width="38.9808" height="21.7056" transform="matrix(0.866025 -0.5 2.20305e-08 1 41.6884 70.3003)" fill="#D9F3EB" stroke="white"/>
<rect x="-2.98023e-08" y="0.5" width="35.3123" height="37.8741" transform="matrix(0.866025 0.5 -0.866025 0.5 75.7333 69.1147)" fill="white" stroke="white"/>
<rect width="33.1938" height="150.281" transform="matrix(0.866025 -0.5 2.20305e-08 1 104.147 37.6974)" fill="#D9F3EB"/>
<rect width="33.2431" height="35.3008" transform="matrix(0.866025 -0.5 2.20305e-08 1 119.211 131.379)" fill="#D9F3EB"/>
<path d="M96.2959 0L132.894 21.1298L102.626 38.6048L66.423 17.6736L67.5968 16.6155L96.2959 0Z" fill="white"/>
<rect width="17.413" height="34.2974" transform="matrix(0.866025 0.5 -0.866025 0.5 132.919 106.05)" fill="white"/>
<path d="M103.658 38.6005V38.0231L103.158 37.7345L68.2901 17.6032L67.6779 17.2498L67.1404 17.7091L11.9323 64.8916L11.582 65.191V65.6518L11.582 103.398V103.975L12.082 104.264L70.6039 138.051V167.461V168.039L71.1039 168.327L102.158 186.257L103.658 187.123V185.391V157.135L117.232 164.972L118.732 165.838V164.106V132.232V131.654L118.232 131.366L103.658 122.952V38.6005ZM42.6389 87.722V82.8902L67.9006 61.4181L71.8751 63.7127V104.602L42.6389 87.722Z" fill="#13B17C" stroke="white" stroke-width="2"/>
</svg>
