<svg width="36" height="32" viewBox="0 0 36 32" fill="none" xmlns="http://www.w3.org/2000/svg">
<path d="M15.2308 0C14.506 0 13.765 0.255435 13.2404 0.782609C12.7157 1.30978 12.4615 2.05435 12.4615 2.78261V4.17391H0V32H36V4.17391H23.5385V2.78261C23.5385 2.05435 23.2843 1.30978 22.7596 0.782609C22.235 0.255435 21.494 0 20.7692 0H15.2308ZM15.2308 2.78261H20.7692V4.17391H15.2308V2.78261ZM2.76923 6.95652H33.2308V15.3043C33.2308 16.962 32.1112 18.087 30.4615 18.087H5.53846C3.88882 18.087 2.76923 16.962 2.76923 15.3043V6.95652ZM8.30769 12.5217V16.6957H11.0769V12.5217H8.30769ZM24.9231 12.5217V16.6957H27.6923V12.5217H24.9231ZM2.76923 20.087C3.58594 20.5598 4.52704 20.8696 5.53846 20.8696H30.4615C31.473 20.8696 32.4141 20.5598 33.2308 20.087V29.2174H2.76923V20.087Z" fill="url(#paint0_linear)"/>
<defs>
<linearGradient id="paint0_linear" x1="18" y1="0" x2="18" y2="32" gradientUnits="userSpaceOnUse">
<stop stop-color="#928515"/>
<stop offset="1" stop-color="#DFCB18"/>
</linearGradient>
</defs>
</svg>
