<svg xmlns="http://www.w3.org/2000/svg" viewBox="0 0 208 72.1">
    <defs>
        <style>
            .cls-1 {
                fill: #13b17c;
            }

            .cls-2 {
                fill: #fff;
            }
        </style>
    </defs>
    <path class="cls-1"
        d="M207.84,20.26A23,23,0,0,0,187.74.16,59.17,59.17,0,0,0,181.5,0H26.5a59.17,59.17,0,0,0-6.24.16A23,23,0,0,0,.16,20.26,59.17,59.17,0,0,0,0,26.5a59.17,59.17,0,0,0,.16,6.24,23,23,0,0,0,20.1,20.1A59.17,59.17,0,0,0,26.5,53H89.16c9.06,2.41,13.74,19.1,13.74,19.1s5-16.67,13.88-19.1H181.5a59.17,59.17,0,0,0,6.24-.16,23,23,0,0,0,20.1-20.1A59.17,59.17,0,0,0,208,26.5,59.17,59.17,0,0,0,207.84,20.26Z" />
    <path class="cls-2"
        d="M28.09,31V21.82h.33l2.74,5.09h1.41l2.75-5.09h.33V31H37V20.29H34.7l-2.65,5h-.33l-2.7-5H26.77V31Zm11.48,0h3.36c1.81,0,2.85-1,2.85-2.53S44.74,26,42.93,26H40.84V23.44H39.57Zm3.18-4c1.26,0,1.75.48,1.75,1.43s-.58,1.42-1.75,1.42H40.84V27ZM47,31h1.28V23.44H47Zm14.65-7.56H60.36v3.12H56.18V23.44H54.9V31h1.28V27.67h4.18V31h1.28ZM70.12,31V25.85c0-1.66-1.2-2.6-3.12-2.6-1.73,0-2.93.82-3,2.2h1.27c.06-.68.68-1.1,1.76-1.1,1.26,0,1.84.62,1.84,1.58v.3H66.41a2.92,2.92,0,0,0-2.19.74,2.5,2.5,0,0,0-.7,1.77,2.39,2.39,0,0,0,.72,1.74,2.75,2.75,0,0,0,2,.71,2.84,2.84,0,0,0,2.36-1h.33V31Zm-3.57-.92c-1.1,0-1.76-.53-1.76-1.39s.6-1.44,1.82-1.44h2.26v.69a2,2,0,0,1-.69,1.53A2.32,2.32,0,0,1,66.55,30.08ZM79,31l-2.34-3.92,2.14-3.64H77.42l-1.77,3h-.54l-1.74-3H72l2.11,3.69L71.78,31h1.39l1.92-3.17h.54L77.51,31ZM81,24.37a4.12,4.12,0,0,0-1,2.85,4.16,4.16,0,0,0,1,2.86,3.51,3.51,0,0,0,2.73,1.11,3.45,3.45,0,0,0,2.72-1.11,4.12,4.12,0,0,0,1-2.86,4.08,4.08,0,0,0-1-2.85,3.42,3.42,0,0,0-2.72-1.12A3.49,3.49,0,0,0,81,24.37ZM82,29.26a3.32,3.32,0,0,1-.63-2,3.27,3.27,0,0,1,.63-2,2.38,2.38,0,0,1,3.63,0,3.27,3.27,0,0,1,.63,2,3.32,3.32,0,0,1-.63,2,2.42,2.42,0,0,1-3.63,0Zm14.26-5.82h-5.7v2.07a10.22,10.22,0,0,1-.93,4.38h-1v3.26h1.25V31h6.54v2.15H97.6V29.89H96.21Zm-5.34,6.45a10.41,10.41,0,0,0,.82-4.38v-1h3.24v5.34Zm13.56-4.74h.33V31H106V23.44h-1.86l-3.32,5.85h-.33V23.44H99.26V31h1.8ZM109.72,31V24.92h.33l1.75,3.25h1.41L115,24.92h.33V31h1.24V23.44h-2l-1.86,3.45h-.33l-1.86-3.45h-2V31Zm14.4-2.28a1.7,1.7,0,0,1-1.91,1.36,2,2,0,0,1-1.79-.82,3.4,3.4,0,0,1-.6-2.07c0-1.63.78-2.84,2.39-2.84a1.73,1.73,0,0,1,1.86,1.28h1.28a2.9,2.9,0,0,0-3.14-2.38,3.43,3.43,0,0,0-2.7,1.1,4.24,4.24,0,0,0-1,2.87,4.25,4.25,0,0,0,1,2.86,3.41,3.41,0,0,0,2.7,1.11,3,3,0,0,0,3.18-2.47Zm5.62-5.28c-1.69,0-2.65.86-2.65,2.3a2,2,0,0,0,1.17,2L127,31h1.34l1.14-3h2.76v3h1.29V23.44Zm2.48,3.49h-2.34c-1.1,0-1.52-.4-1.52-1.18s.42-1.23,1.52-1.23h2.34Zm12.24-1.42c0,.65-.46,1.08-1.47,1.08h-1.27V27.7h1.33c1.2,0,1.67.39,1.67,1.17s-.74,1.21-1.86,1.21-1.92-.4-2.18-1.23h-1.23c.23,1.46,1.38,2.34,3.41,2.34a3.59,3.59,0,0,0,2.29-.66,2,2,0,0,0,.84-1.61,1.62,1.62,0,0,0-1.08-1.72v-.32a1.53,1.53,0,0,0,.81-1.54c0-1.19-1.08-2.09-2.89-2.09s-2.94.85-3.08,2.27H141c.16-.77.78-1.17,1.83-1.17S144.46,24.77,144.46,25.51Zm10.31-2.07h-5.7v2.07a10.08,10.08,0,0,1-.93,4.38h-1v3.26h1.24V31h6.54v2.15h1.25V29.89h-1.4Zm-5.34,6.45a10.25,10.25,0,0,0,.83-4.38v-1h3.24v5.34Zm14.95-3.12a3.83,3.83,0,0,0-.92-2.51,3.07,3.07,0,0,0-2.46-1,3.45,3.45,0,0,0-2.67,1.06,4.06,4.06,0,0,0-1,2.84,4.4,4.4,0,0,0,1,2.92,3.38,3.38,0,0,0,2.7,1.12c1.8,0,3-.91,3.21-2.27H163A1.75,1.75,0,0,1,161,30.08c-1.54,0-2.37-1.06-2.41-2.88h5.76ZM161,24.35a2,2,0,0,1,2.09,1.79h-4.37A2.15,2.15,0,0,1,161,24.35Zm10.51,4.37a1.7,1.7,0,0,1-1.91,1.36,2.08,2.08,0,0,1-1.8-.82,3.47,3.47,0,0,1-.6-2.07c0-1.63.78-2.84,2.4-2.84a1.74,1.74,0,0,1,1.86,1.28h1.28a2.91,2.91,0,0,0-3.14-2.38,3.43,3.43,0,0,0-2.7,1.1,4.24,4.24,0,0,0-1,2.87,4.25,4.25,0,0,0,1,2.86,3.41,3.41,0,0,0,2.7,1.11,3,3,0,0,0,3.18-2.47Zm3.17-5.28V31h3.51C180,31,181,30,181,28.47S180,26,178.16,26h-2.23V23.44Zm1.28,6.45V27h2c1.26,0,1.76.48,1.76,1.43s-.59,1.42-1.76,1.42Z" />
</svg>