<svg width="67" height="55" viewBox="0 0 67 55" fill="none" xmlns="http://www.w3.org/2000/svg">
<path d="M6.93728 21.1538L27.3173 43.134L17.5035 21.1538H6.93728ZM33.5 46.6707L44.9167 21.1538H22.0833L33.5 46.6707ZM17.6016 16.9231L24.275 4.23077H15.7043L6.28302 16.9231H17.6016ZM39.6827 43.134L60.0627 21.1538H49.4965L39.6827 43.134ZM22.345 16.9231H44.655L37.9816 4.23077H29.0184L22.345 16.9231ZM49.3984 16.9231H60.717L51.2957 4.23077H42.725L49.3984 16.9231ZM54.0109 0.859375L66.5725 17.7825C66.8779 18.1791 67.0196 18.6363 66.9978 19.1541C66.976 19.672 66.7906 20.1182 66.4417 20.4928L35.0375 54.3389C34.6449 54.7797 34.1324 55 33.5 55C32.8675 55 32.3551 54.7797 31.9625 54.3389L0.558297 20.4928C0.209361 20.1182 0.0239893 19.672 0.00218085 19.1541C-0.0196276 18.6363 0.122127 18.1791 0.427446 17.7825L12.9891 0.859375C13.3817 0.286458 13.9378 0 14.6575 0H52.3425C53.0622 0 53.6183 0.286458 54.0109 0.859375Z" fill="white"/>
</svg>
