<svg id="Layer_1" data-name="Layer 1" xmlns="http://www.w3.org/2000/svg" viewBox="0 0 190 47.07"><defs><style>.cls-1{fill:none;}.cls-2{fill:#ffffff;}</style></defs><path class="cls-1" d="M121.91,17.5a1.56,1.56,0,0,0-.51-1.24,2,2,0,0,0-1.39-.48h-1.9v3.56H120a2,2,0,0,0,1.42-.5A1.78,1.78,0,0,0,121.91,17.5Z"/><path class="cls-1" d="M94.2,32.41a3.08,3.08,0,0,0-.66,2.11,2.89,2.89,0,0,0,.66,2,2.39,2.39,0,0,0,1.85.72h.12V31.67H96A2.34,2.34,0,0,0,94.2,32.41Z"/><path class="cls-1" d="M98.52,31.67h-.11v5.57h.15a2.26,2.26,0,0,0,1.79-.73,2.9,2.9,0,0,0,.66-2,3.12,3.12,0,0,0-.64-2.08A2.31,2.31,0,0,0,98.52,31.67Z"/><path class="cls-1" d="M110.78,30.47a2,2,0,0,0-1.8.94,4.79,4.79,0,0,0-.64,2.73v.56a5.07,5.07,0,0,0,.63,2.75,2.21,2.21,0,0,0,3.63,0,5.15,5.15,0,0,0,.63-2.75v-.56a5,5,0,0,0-.63-2.77A2.07,2.07,0,0,0,110.78,30.47Z"/><path class="cls-1" d="M123.31,30.59h-2.13v3.63h2.08a2,2,0,0,0,1.4-.45,1.64,1.64,0,0,0,.49-1.27,2,2,0,0,0-.49-1.37A1.78,1.78,0,0,0,123.31,30.59Z"/><polygon class="cls-1" points="149.22 35.91 152.04 35.91 150.63 31.58 149.22 35.91"/><path class="cls-1" d="M80.75,14.66a10.29,10.29,0,0,1-1.25,4.68h4.3V11.62H80.94Z"/><path class="cls-1" d="M185.81,30.59h-2.13v3.63h2.08a2,2,0,0,0,1.4-.45,1.61,1.61,0,0,0,.49-1.27,1.92,1.92,0,0,0-.49-1.37A1.78,1.78,0,0,0,185.81,30.59Z"/><path class="cls-1" d="M38.11,30.46A7,7,0,0,0,31.19,36H45A7,7,0,0,0,38.11,30.46Z"/><path class="cls-1" d="M173.29,30.47a2,2,0,0,0-1.81.94,4.87,4.87,0,0,0-.64,2.73v.56a5.07,5.07,0,0,0,.63,2.75,2.21,2.21,0,0,0,3.63,0,5,5,0,0,0,.63-2.75v-.56a5,5,0,0,0-.63-2.77A2.06,2.06,0,0,0,173.29,30.47Z"/><polygon class="cls-2" points="73.85 19.34 68.62 19.34 68.62 16.24 73.08 16.24 73.08 14.38 68.62 14.38 68.62 11.62 73.84 11.62 73.84 9.69 66.29 9.69 66.29 21.25 73.85 21.25 73.85 19.34"/><path class="cls-2" d="M85.11,24.09h2.15l.18-4.75H86.13V9.69H78.74l-.33,5.1a12.51,12.51,0,0,1-.51,2.83,3.75,3.75,0,0,1-1.06,1.72H76l.12,4.74h2.2V21.25h6.8ZM83.8,19.34H79.5a10.29,10.29,0,0,0,1.25-4.68l.19-3H83.8Z"/><polygon class="cls-2" points="97.01 13.57 97.01 21.25 99.34 21.25 99.34 9.69 97.01 9.69 92.5 17.39 92.5 9.69 90.17 9.69 90.17 21.25 92.5 21.25 97.01 13.57"/><polygon class="cls-2" points="109.8 21.25 112.12 21.25 112.12 9.69 109.8 9.69 109.8 14.38 105.27 14.38 105.27 9.69 102.94 9.69 102.94 21.25 105.27 21.25 105.27 16.3 109.8 16.3 109.8 21.25"/><rect class="cls-2" x="125.21" y="9.69" width="2.32" height="11.56"/><path class="cls-2" d="M123.08,20.22a3.45,3.45,0,0,0,1.16-2.71,3.31,3.31,0,0,0-1.17-2.66,4.68,4.68,0,0,0-3.15-1h-1.81V9.69h-2.34V21.25H120A4.52,4.52,0,0,0,123.08,20.22Zm-5-.88V15.78H120a2,2,0,0,1,1.39.48,1.56,1.56,0,0,1,.51,1.24,1.78,1.78,0,0,1-.53,1.34,2,2,0,0,1-1.42.5Z"/><path class="cls-2" d="M135.7,9a2.83,2.83,0,0,0,1.93-.65,2.14,2.14,0,0,0,.75-1.71h-1.61a1,1,0,0,1-.29.78,1.09,1.09,0,0,1-.78.27,1.15,1.15,0,0,1-.81-.27,1,1,0,0,1-.29-.78H133a2.17,2.17,0,0,0,.73,1.72A2.88,2.88,0,0,0,135.7,9Z"/><polygon class="cls-2" points="137.93 13.57 137.93 21.25 140.26 21.25 140.26 9.69 137.93 9.69 133.41 17.39 133.41 9.69 131.09 9.69 131.09 21.25 133.41 21.25 137.93 13.57"/><polygon class="cls-2" points="68.54 36.35 68.54 28.66 66.22 28.66 66.22 40.22 68.54 40.22 73.05 32.54 73.05 40.22 75.39 40.22 75.39 28.66 73.05 28.66 68.54 36.35"/><polygon class="cls-2" points="85.84 33.34 81.31 33.34 81.31 28.66 78.98 28.66 78.98 40.22 81.31 40.22 81.31 35.26 85.84 35.26 85.84 40.22 88.16 40.22 88.16 28.66 85.84 28.66 85.84 33.34"/><path class="cls-2" d="M100.94,30.29a4.79,4.79,0,0,0-2.39-.6h-.14V28.18H96.17v1.51H96a4.67,4.67,0,0,0-2.37.64A4.29,4.29,0,0,0,91.93,32a5.2,5.2,0,0,0-.59,2.49A5,5,0,0,0,91.93,37a4.22,4.22,0,0,0,1.68,1.67,4.94,4.94,0,0,0,2.41.59h.15v1.47h2.24V39.22a4.67,4.67,0,0,0,3.5-1.32,4.62,4.62,0,0,0,1.3-3.4,5.2,5.2,0,0,0-.6-2.51A4.14,4.14,0,0,0,100.94,30.29Zm-4.77,7h-.12a2.39,2.39,0,0,1-1.85-.72,2.89,2.89,0,0,1-.66-2,3.08,3.08,0,0,1,.66-2.11A2.34,2.34,0,0,1,96,31.67h.15Zm4.18-.73a2.26,2.26,0,0,1-1.79.73h-.15V31.67h.11a2.31,2.31,0,0,1,1.85.75A3.12,3.12,0,0,1,101,34.5,2.9,2.9,0,0,1,100.35,36.51Z"/><path class="cls-2" d="M113.28,29.2a4.48,4.48,0,0,0-2.5-.7,4.56,4.56,0,0,0-2.51.7,4.49,4.49,0,0,0-1.69,2,7,7,0,0,0-.6,3v.57a7.08,7.08,0,0,0,.61,3,4.52,4.52,0,0,0,1.71,2,4.59,4.59,0,0,0,6.7-2,7.12,7.12,0,0,0,.58-3v-.52a7,7,0,0,0-.6-3A4.45,4.45,0,0,0,113.28,29.2Zm0,5.54a5.15,5.15,0,0,1-.63,2.75,2.21,2.21,0,0,1-3.63,0,5.07,5.07,0,0,1-.63-2.75v-.56a4.79,4.79,0,0,1,.64-2.73,2,2,0,0,1,1.8-.94,2.07,2.07,0,0,1,1.82.94,5,5,0,0,1,.63,2.77Z"/><path class="cls-2" d="M125.49,29.14a4.94,4.94,0,0,0-2.23-.48h-4.4V40.22h2.32V36.15h2a4.67,4.67,0,0,0,3.14-1,3.39,3.39,0,0,0,1.13-2.68,3.92,3.92,0,0,0-.51-2A3.49,3.49,0,0,0,125.49,29.14Zm-.83,4.63a2,2,0,0,1-1.4.45h-2.08V30.59h2.13a1.78,1.78,0,0,1,1.35.54,2,2,0,0,1,.49,1.37A1.64,1.64,0,0,1,124.66,33.77Z"/><polygon class="cls-2" points="136.62 37.04 133.72 28.66 130.68 28.66 130.68 40.22 133.01 40.22 133.01 37.06 132.78 31.61 135.81 40.22 137.41 40.22 140.45 31.61 140.22 37.06 140.22 40.22 142.55 40.22 142.55 28.66 139.5 28.66 136.62 37.04"/><path class="cls-2" d="M149.55,28.66l-4.2,11.56h2.47l.78-2.38h4.07l.78,2.38h2.47L151.7,28.66Zm-.33,7.25,1.41-4.33L152,35.91Z"/><polygon class="cls-2" points="156.94 30.59 160.34 30.59 160.34 40.22 162.67 40.22 162.67 30.59 166.12 30.59 166.12 28.66 156.94 28.66 156.94 30.59"/><path class="cls-2" d="M175.79,29.2a4.6,4.6,0,0,0-6.71,2,7,7,0,0,0-.6,3v.57a6.93,6.93,0,0,0,.62,3,4.47,4.47,0,0,0,4.2,2.66,4.45,4.45,0,0,0,4.2-2.69,7.12,7.12,0,0,0,.59-3v-.52a6.88,6.88,0,0,0-.61-3A4.43,4.43,0,0,0,175.79,29.2Zm-.06,5.54a5,5,0,0,1-.63,2.75,2.21,2.21,0,0,1-3.63,0,5.07,5.07,0,0,1-.63-2.75v-.56a4.87,4.87,0,0,1,.64-2.73,2.21,2.21,0,0,1,3.62,0,5,5,0,0,1,.63,2.77Z"/><path class="cls-2" d="M189.48,30.49A3.43,3.43,0,0,0,188,29.14a4.92,4.92,0,0,0-2.23-.48h-4.4V40.22h2.32V36.15h2a4.67,4.67,0,0,0,3.14-1A3.36,3.36,0,0,0,190,32.49,3.92,3.92,0,0,0,189.48,30.49Zm-2.32,3.28a2,2,0,0,1-1.4.45h-2.08V30.59h2.13a1.78,1.78,0,0,1,1.35.54,1.92,1.92,0,0,1,.49,1.37A1.61,1.61,0,0,1,187.16,33.77Z"/><path class="cls-2" d="M52.23,22.17a1.39,1.39,0,1,0,1.41,1.39h0A1.41,1.41,0,0,0,52.23,22.17Z"/><path class="cls-2" d="M52.23,27.69a1.4,1.4,0,0,0-1.41,1.39V45.69a1.41,1.41,0,0,0,2.82,0V29.07A1.41,1.41,0,0,0,52.23,27.69Z"/><path class="cls-2" d="M24,0A23.77,23.77,0,0,0,0,23.53,23.77,23.77,0,0,0,24,47.07h0a21.45,21.45,0,0,0,2.89-.17,1.45,1.45,0,0,0,1.34-1.38,1.29,1.29,0,0,0-1.41-1.39A22.71,22.71,0,0,1,24,44.3,21,21,0,0,1,2.82,23.53,21,21,0,0,1,24,2.77,21,21,0,0,1,45.12,22.15H40.88A16.81,16.81,0,0,0,24,6.92,16.78,16.78,0,0,0,7.06,23.53,16.78,16.78,0,0,0,23.87,40.15H24a1.39,1.39,0,1,0,0-2.77h0A14,14,0,0,1,9.88,23.53,14,14,0,0,1,24,9.69,14,14,0,0,1,38,22.15H33.78a9.87,9.87,0,1,0-9.91,11.07,12.43,12.43,0,0,0,1.61-.1,1.43,1.43,0,0,0,1.34-1.39,1.34,1.34,0,0,0-1.41-1.38,10.47,10.47,0,0,1-1.41.11,6.92,6.92,0,1,1,6.91-8.31H24a1.39,1.39,0,1,0,0,2.77H46.58A1.4,1.4,0,0,0,48,23.54h0A23.77,23.77,0,0,0,24,0Z"/><path class="cls-2" d="M38.11,27.69a9.69,9.69,0,1,0,0,19.38h0a12.14,12.14,0,0,0,7.2-2.35h0c1.51-1.16-.08-3.41-1.83-2.12a9.32,9.32,0,0,1-5.39,1.72h0a7,7,0,0,1-6.92-5.54H46.58A1.4,1.4,0,0,0,48,37.38h0A9.79,9.79,0,0,0,38.11,27.69ZM31.19,36A7.09,7.09,0,0,1,45,36Z"/></svg>