<svg id="Layer_1" data-name="Layer 1" xmlns="http://www.w3.org/2000/svg" xmlns:xlink="http://www.w3.org/1999/xlink" viewBox="0 0 190 53"><defs><style>.cls-1{fill:none;}.cls-2,.cls-4{fill:#13b17c;}.cls-3{clip-path:url(#clip-path);}.cls-4{fill-rule:evenodd;}</style><clipPath id="clip-path"><rect class="cls-1" width="53.64" height="53"/></clipPath></defs><path class="cls-2" d="M73.08,18H68.62v3.12h5.23V23H66.29V11.38h7.55v1.94H68.62V16.1h4.46Z"/><path class="cls-2" d="M87.26,25.88H85.11V23h-6.8v2.86h-2.2L76,21.09h.85a3.73,3.73,0,0,0,1.06-1.73,12.6,12.6,0,0,0,.51-2.85l.33-5.13h7.39v9.71h1.31ZM79.5,21.09h4.3V13.32H80.94l-.19,3.06A10.35,10.35,0,0,1,79.5,21.09Z"/><path class="cls-2" d="M97,11.38h2.33V23H97V15.29L92.5,23H90.17V11.38H92.5v7.75Z"/><path class="cls-2" d="M112.12,23H109.8V18h-4.53v5h-2.33V11.38h2.33V16.1h4.53V11.38h2.32Z"/><path class="cls-2" d="M118.11,15.58h1.81a4.68,4.68,0,0,1,3.15,1,3.35,3.35,0,0,1,1.17,2.68A3.46,3.46,0,0,1,123.08,22,4.53,4.53,0,0,1,120,23h-4.23V11.38h2.34ZM127.53,23h-2.32V11.38h2.32Zm-9.42-5.51v3.58H120a2,2,0,0,0,1.42-.5,1.8,1.8,0,0,0,.53-1.35A1.58,1.58,0,0,0,121.4,18a2,2,0,0,0-1.39-.48Z"/><path class="cls-2" d="M137.93,11.38h2.33V23h-2.33V15.29L133.41,23h-2.32V11.38h2.32v7.75Zm.45-3.07a2.16,2.16,0,0,1-.75,1.72,2.79,2.79,0,0,1-1.93.66,2.89,2.89,0,0,1-1.95-.65A2.19,2.19,0,0,1,133,8.31h1.59a1.07,1.07,0,0,0,.29.79,1.15,1.15,0,0,0,.81.27,1.13,1.13,0,0,0,.79-.27,1.06,1.06,0,0,0,.28-.79Z"/><path class="cls-2" d="M73.05,30.48h2.33V42.13H73.05V34.4l-4.51,7.73H66.21V30.48h2.33v7.75Z"/><path class="cls-2" d="M88.16,42.13H85.84v-5H81.31v5H79V30.48h2.33V35.2h4.53V30.48h2.32Z"/><path class="cls-2" d="M98.41,31.52h.14a4.8,4.8,0,0,1,2.39.61,4.11,4.11,0,0,1,1.67,1.71,5.25,5.25,0,0,1,.6,2.53,4.52,4.52,0,0,1-4.8,4.75v1.49H96.17V41.12H96a4.94,4.94,0,0,1-2.41-.59,4.24,4.24,0,0,1-1.68-1.68,5.08,5.08,0,0,1-.59-2.46,5.28,5.28,0,0,1,.59-2.51,4.41,4.41,0,0,1,1.65-1.72A4.77,4.77,0,0,1,96,31.52h.22V30h2.24Zm-2.39,2a2.32,2.32,0,0,0-1.82.75,3.09,3.09,0,0,0-.66,2.12,2.9,2.9,0,0,0,.66,2,2.36,2.36,0,0,0,1.85.73h.12V33.52Zm2.39,0v5.61h.15a2.26,2.26,0,0,0,1.79-.74,2.93,2.93,0,0,0,.66-2,3.11,3.11,0,0,0-.64-2.09,2.29,2.29,0,0,0-1.85-.76Z"/><path class="cls-2" d="M115.58,36.57a7.3,7.3,0,0,1-.58,3,4.61,4.61,0,0,1-8.41,0,7.17,7.17,0,0,1-.61-3v-.57a7.11,7.11,0,0,1,.6-3,4.49,4.49,0,0,1,1.69-2,4.57,4.57,0,0,1,2.51-.71A4.48,4.48,0,0,1,115,33a7.09,7.09,0,0,1,.6,3ZM113.23,36a5,5,0,0,0-.63-2.78,2.07,2.07,0,0,0-1.82-.95,2,2,0,0,0-1.8.94,5,5,0,0,0-.65,2.75v.57a5.14,5.14,0,0,0,.64,2.77,2.2,2.2,0,0,0,3.63,0,5.23,5.23,0,0,0,.63-2.77Z"/><path class="cls-2" d="M121.18,38v4.1h-2.32V30.48h4.4a4.92,4.92,0,0,1,2.23.48A3.53,3.53,0,0,1,127,32.33a4,4,0,0,1,.52,2,3.42,3.42,0,0,1-1.14,2.7,4.62,4.62,0,0,1-3.14,1Zm0-2h2.08a2,2,0,0,0,1.4-.45,1.61,1.61,0,0,0,.49-1.27,1.94,1.94,0,0,0-.49-1.39,1.8,1.8,0,0,0-1.35-.54h-2.13Z"/><path class="cls-2" d="M133.72,30.48l2.9,8.45,2.88-8.45h3.05V42.13h-2.33V39l.23-5.5-3,8.68h-1.6l-3-8.67L133,39v3.18h-2.33V30.48Z"/><path class="cls-2" d="M152.67,39.73H148.6l-.78,2.4h-2.47l4.2-11.65h2.15l4.22,11.65h-2.47Zm-3.45-1.94H152l-1.41-4.36Z"/><path class="cls-2" d="M166.12,32.43h-3.45v9.7h-2.33v-9.7h-3.4V30.48h9.18Z"/><path class="cls-2" d="M178.09,36.57a7.3,7.3,0,0,1-.59,3,4.6,4.6,0,0,1-8.4,0,7,7,0,0,1-.62-3v-.57a7.11,7.11,0,0,1,.6-3,4.55,4.55,0,0,1,1.69-2,4.6,4.6,0,0,1,2.52-.71,4.54,4.54,0,0,1,2.5.71,4.43,4.43,0,0,1,1.69,2,7.09,7.09,0,0,1,.61,3ZM175.73,36a5,5,0,0,0-.63-2.78,2.21,2.21,0,0,0-3.62,0,4.94,4.94,0,0,0-.64,2.75v.57a5.14,5.14,0,0,0,.63,2.77,2.07,2.07,0,0,0,1.83,1,2,2,0,0,0,1.8-.94,5.14,5.14,0,0,0,.63-2.77Z"/><path class="cls-2" d="M183.68,38v4.1h-2.32V30.48h4.4A4.92,4.92,0,0,1,188,31a3.47,3.47,0,0,1,1.49,1.37,4,4,0,0,1,.52,2,3.39,3.39,0,0,1-1.14,2.7,4.62,4.62,0,0,1-3.14,1Zm0-2h2.08a2,2,0,0,0,1.4-.45,1.61,1.61,0,0,0,.49-1.27,1.94,1.94,0,0,0-.49-1.39,1.78,1.78,0,0,0-1.35-.54h-2.13Z"/><g class="cls-3"><path class="cls-4" d="M52.23,29.29a1.4,1.4,0,0,1,1.41,1.39V47.29a1.41,1.41,0,0,1-2.82,0V30.68A1.4,1.4,0,0,1,52.23,29.29Zm0-5.52a1.39,1.39,0,1,1-1.41,1.39A1.4,1.4,0,0,1,52.23,23.77Z"/><path class="cls-4" d="M24,45.9a22.71,22.71,0,0,0,2.85-.17,1.29,1.29,0,0,1,1.41,1.38,1.45,1.45,0,0,1-1.34,1.39,21.45,21.45,0,0,1-2.89.17h0A23.77,23.77,0,0,1,0,25.13,23.77,23.77,0,0,1,24,1.6,23.77,23.77,0,0,1,48,25.13h0a1.4,1.4,0,0,1-1.41,1.38H24a1.39,1.39,0,1,1,0-2.77h6.91A7,7,0,1,0,24,32.06,10.47,10.47,0,0,0,25.41,32a1.34,1.34,0,0,1,1.41,1.38,1.44,1.44,0,0,1-1.34,1.39,12.43,12.43,0,0,1-1.61.1,9.69,9.69,0,1,1,9.91-11.07H38A14,14,0,0,0,24,11.29,14,14,0,0,0,9.88,25.13,14,14,0,0,0,24,39h0a1.39,1.39,0,1,1,0,2.77h-.13A16.76,16.76,0,0,1,7.06,25.13,16.78,16.78,0,0,1,24,8.52,16.81,16.81,0,0,1,40.88,23.75h4.24A21,21,0,0,0,24,4.37,21,21,0,0,0,2.82,25.13,21,21,0,0,0,24,45.9Z"/><path class="cls-4" d="M38.11,45.9h0a9.31,9.31,0,0,0,5.39-1.71c1.75-1.29,3.34,1,1.83,2.11l0,0h0a12.14,12.14,0,0,1-7.2,2.35h0A9.69,9.69,0,1,1,48,39h0a1.4,1.4,0,0,1-1.41,1.39H31.19A7,7,0,0,0,38.11,45.9Zm-6.92-8.3A7.09,7.09,0,0,1,45,37.6Z"/></g></svg>