<svg id="Layer_1" data-name="Layer 1" xmlns="http://www.w3.org/2000/svg" xmlns:xlink="http://www.w3.org/1999/xlink" viewBox="0 0 58.5 51.75"><defs><style>.cls-1{fill:url(#linear-gradient);}</style><linearGradient id="linear-gradient" x1="29.25" y1="52.5" x2="29.25" y2="0.75" gradientTransform="matrix(1, 0, 0, -1, 0, 52.5)" gradientUnits="userSpaceOnUse"><stop offset="0" stop-color="#928515"/><stop offset="1" stop-color="#dfcb18"/></linearGradient></defs><path class="cls-1" d="M24.75,0a4.53,4.53,0,0,0-3.23,1.27A4.53,4.53,0,0,0,20.25,4.5V6.75H0v45H58.5v-45H38.25V4.5A4.53,4.53,0,0,0,37,1.27,4.53,4.53,0,0,0,33.75,0Zm0,4.5h9V6.75h-9ZM4.5,11.25H54v13.5a4.27,4.27,0,0,1-4.5,4.5H9a4.27,4.27,0,0,1-4.5-4.5Zm9,9V27H18V20.25Zm27,0V27H45V20.25ZM4.5,32.48A9,9,0,0,0,9,33.75H49.5A9,9,0,0,0,54,32.48V47.25H4.5Z"/></svg>