<svg width="40" height="40" viewBox="0 0 40 40" fill="none" xmlns="http://www.w3.org/2000/svg">
<g clip-path="url(#clip0)">
<path d="M37.7921 7.0689e-08H2.20612C0.987549 0.000610422 -0.000305105 0.989075 7.0689e-08 2.20795V37.7939C0.000610422 39.0125 0.989075 40.0003 2.20795 40H37.7921C39.0112 40.0003 39.9997 39.0121 40 37.793C40 37.7927 40 37.7924 40 37.7921V2.20612C39.9994 0.987549 39.0109 -0.000305105 37.7921 7.0689e-08Z" fill="#4267B2"/>
<path d="M25.8457 44.3589V28.8902H31.0605L31.8418 22.8355H25.8457V18.9793C25.8457 17.2303 26.3312 16.0386 28.8392 16.0386H32.0176V10.6379C31.4646 10.5644 29.5673 10.3999 27.3597 10.3999C22.7503 10.3999 19.5957 13.2124 19.5957 18.3796V22.8355H14.4004V28.8902H19.5957V44.3589H25.8457Z" fill="white"/>
</g>
<defs>
<clipPath id="clip0">
<rect width="40" height="40" rx="20" fill="white"/>
</clipPath>
</defs>
</svg>
