<svg width="40" height="40" viewBox="0 0 40 40" fill="none" xmlns="http://www.w3.org/2000/svg">
<g clip-path="url(#clip0)">
<path d="M19.9998 39.9996C31.0454 39.9996 39.9996 31.0454 39.9996 19.9998C39.9996 8.95423 31.0454 0 19.9998 0C8.95423 0 0 8.95423 0 19.9998C0 31.0454 8.95423 39.9996 19.9998 39.9996Z" fill="#55ACEE"/>
<path d="M32.2504 14.3731C31.3933 14.7532 30.4714 15.0102 29.5045 15.125C30.4917 14.5336 31.2493 13.5977 31.6069 12.4807C30.6831 13.0287 29.6596 13.4262 28.5711 13.6405C27.6991 12.7118 26.4566 12.1313 25.0808 12.1313C22.4412 12.1313 20.3003 14.2722 20.3003 16.9119C20.3003 17.2866 20.3427 17.6513 20.4247 18.0014C16.4517 17.8021 12.929 15.899 10.571 13.0059C10.1596 13.7118 9.92358 14.5336 9.92358 15.4095C9.92358 17.0677 10.7682 18.5315 12.0502 19.3886C11.2669 19.364 10.5293 19.149 9.88507 18.79C9.88472 18.8103 9.88472 18.8306 9.88472 18.8506C9.88472 21.1669 11.5332 23.0988 13.7198 23.5377C13.319 23.6475 12.8958 23.7056 12.4605 23.7056C12.1518 23.7056 11.8527 23.676 11.5611 23.6204C12.1693 25.5192 13.9344 26.9014 16.0268 26.9403C14.3904 28.2227 12.3293 28.9867 10.089 28.9867C9.70396 28.9867 9.32249 28.9642 8.94922 28.9197C11.0637 30.2766 13.5771 31.0677 16.2767 31.0677C25.0698 31.0677 29.8785 23.7834 29.8785 17.4655C29.8785 17.2584 29.8738 17.052 29.8646 16.8473C30.7994 16.1735 31.6097 15.3318 32.2504 14.3731Z" fill="#F1F2F2"/>
</g>
<defs>
<clipPath id="clip0">
<rect width="40" height="40" fill="white"/>
</clipPath>
</defs>
</svg>
