<svg width="39" height="33" viewBox="0 0 39 33" fill="none" xmlns="http://www.w3.org/2000/svg">
<path d="M4.03812 12.3134L15.9011 25.1079L10.1886 12.3134H4.03812ZM19.5 27.1665L26.1456 12.3134H12.8544L19.5 27.1665ZM10.2457 9.85075L14.1302 2.46269H9.1413L3.65728 9.85075H10.2457ZM23.0989 25.1079L34.9619 12.3134H28.8114L23.0989 25.1079ZM13.0068 9.85075H25.9932L22.1087 2.46269H16.8913L13.0068 9.85075ZM28.7543 9.85075H35.3427L29.8587 2.46269H24.8698L28.7543 9.85075ZM31.4392 0.500233L38.7512 10.351C38.9289 10.5819 39.0114 10.848 38.9987 11.1494C38.986 11.4509 38.8781 11.7106 38.675 11.9286L20.395 31.6301C20.1665 31.8867 19.8681 32.0149 19.5 32.0149C19.1319 32.0149 18.8335 31.8867 18.605 31.6301L0.324979 11.9286C0.121867 11.7106 0.0139639 11.4509 0.00126945 11.1494C-0.011425 10.848 0.0710891 10.5819 0.248812 10.351L7.56084 0.500233C7.78934 0.166744 8.11305 0 8.53196 0H30.468C30.887 0 31.2107 0.166744 31.4392 0.500233Z" fill="url(#paint0_linear)"/>
<defs>
<linearGradient id="paint0_linear" x1="0.737213" y1="2.92657" x2="39.7999" y2="4.04372" gradientUnits="userSpaceOnUse">
<stop stop-color="#13B17C"/>
<stop offset="1" stop-color="#0099CC"/>
</linearGradient>
</defs>
</svg>
