<svg id="Layer_1" data-name="Layer 1" xmlns="http://www.w3.org/2000/svg" xmlns:xlink="http://www.w3.org/1999/xlink" viewBox="0 0 90 21"><defs><style>.cls-1{fill:none;}.cls-2{clip-path:url(#clip-path);}.cls-3{fill:#fff;}.cls-3,.cls-4{fill-rule:evenodd;}.cls-4{fill:#f9cc46;}</style><clipPath id="clip-path"><rect class="cls-1" width="90" height="21"/></clipPath></defs><g class="cls-2"><path class="cls-3" d="M48.39,5.09c.21.21,2.16,5.24,2.37,5.86a8.37,8.37,0,0,0,.85,1.91c.67.15.74-.51.94-1C53.66,9,55.34,4.89,56.18,2.11c.59-1.34.64-1.7-.42-1.7S54.82,1.08,54.4,2C54,3.61,52.6,7.1,52.08,8.7c0,.21,0,.21-.27.21-.88-2.38-1.89-5.3-2.89-7.67-.27-.46-.74-.56-1.05.48C47.33,3.36,46.59,5.31,46,6.9c0,0-.69,2-.74,2.11a6.19,6.19,0,0,1-.79-1.85C43.7,5.26,43,3.21,42.34,1.31c-.17-.37-.17-.58-.54-.79a2.26,2.26,0,0,0-1.15-.1c-1,.16-.37,1-.16,1.59,1.28,3.35,2.69,7.36,4.1,10.55a.53.53,0,0,0,.16.2.5.5,0,0,0,.24.09.43.43,0,0,0,.25,0,.51.51,0,0,0,.21-.15C45.65,12.28,48.23,5.09,48.39,5.09Z"/><path class="cls-3" d="M.21.62a.88.88,0,0,0,.05.62C.47,2.11-.16,12,0,12.43a2.6,2.6,0,0,0,1.65.15c.25-.26.15-.51.15-.92C1.8,9.91,2,8.22,2,6.42c.06-.68.12-1.14.12-1.55s0-.36.1-.46A25.64,25.64,0,0,1,4.1,7.46C4.42,8.07,5,9,5.47,9.72c.63,1.13,1,.36,1.1.1C6.94,9.36,9.79,4.48,10,4.38a50.54,50.54,0,0,1,.19,5.44c0,2.68-.32,2.94,1.41,2.82.54,0,.59-.41.54-.87V9.05C12,6.84,11.9,4.31,11.9,2.11c0-.26.1-1.24.1-1.39A1.07,1.07,0,0,0,10.72.51c-.37.21-.47.67-.73,1-1.07,1.85-2.51,4-3.52,5.71-.37.62-.37.41-.69,0-.68-1-1.58-2.67-2.2-3.66l-1.27-2a4.41,4.41,0,0,0-.68-1C1.28.26.58.46.21.62Z"/><path class="cls-3" d="M67.4,6.38A3.47,3.47,0,0,1,69,5.67a3.54,3.54,0,0,1,1.71.09c1.68.72,1.9,3.14,1.16,4.32a2.74,2.74,0,0,1-1.3,1,2.81,2.81,0,0,1-1.65.09,3.8,3.8,0,0,1-1.48-.62Zm0-1.76a34.37,34.37,0,0,1,0-4.06c0-.56-.2-.66-.74-.46-1.27.52-1.27.31-1.09,1.44.1.57,0,7.2,0,8.13,0,1.84-.27,2.27,2.47,3a6,6,0,0,0,2.36,0,6,6,0,0,0,2.18-.9c2.69-2.15,2-8.21-3-7.75a11.13,11.13,0,0,0-1.28.14c-.16,0-.78.41-.86.41Z"/><path class="cls-3" d="M30.27,12.55a4.72,4.72,0,0,0,.17-2,12.39,12.39,0,0,1,0-2.11c.15,0,.31.26.63.57s2.94,3,3.36,3.28a1.34,1.34,0,0,0,.52.29,1.31,1.31,0,0,0,.59,0c.37,0,1,0,1.16-.24,0-.36-.74-.94-1.06-1.25s-.72-.71-1.09-1.13a21.92,21.92,0,0,1-2.27-2.25c0-.11,2.89-2.49,3.43-2.93.2-.21.42-.26.37-.58a3.65,3.65,0,0,0-2,0c-.25.12-2,1.66-2.47,2.07-.15.15-1.05,1.08-1.15,1-.16-.47,0-6.9-.11-7.26s-1.89.21-1.84.83a6,6,0,0,1,.15,1.33V11.1c0,.31-.1,1.25.11,1.4A3.71,3.71,0,0,0,30.27,12.55Z"/><path class="cls-3" d="M16.56,8.33c.58-.15,2.54.31,2.63.82a9.09,9.09,0,0,1,0,1.65c-.37.46-2.9,1.38-3.74-.26a1.71,1.71,0,0,1-.17-.74,1.75,1.75,0,0,1,.17-.75,1.44,1.44,0,0,1,.48-.47A1.57,1.57,0,0,1,16.56,8.33Zm2.68-.62a4.48,4.48,0,0,0-1.63-.66,6.06,6.06,0,0,0-2.16.15,3,3,0,0,0-1.5,1,2.83,2.83,0,0,0-.59,1.67,2.72,2.72,0,0,0,.53,1.69,2.85,2.85,0,0,0,1.46,1,4.87,4.87,0,0,0,3.11,0c.21-.09.63-.36.78-.41s.22.37.42.46a2.21,2.21,0,0,0,1.43-.24c.27-.25.32-.22.15-.58A2.55,2.55,0,0,1,21,10.28V6.58a2.12,2.12,0,0,0-.37-1.49c-1-2-7.07-1.19-6.58.47S15.31,5,18,5.3c1.44.15,1.29,1.49,1.29,2.41Z"/><path class="cls-3" d="M81.57,7.46H77.21a2.11,2.11,0,0,1,.67-1.34,2.51,2.51,0,0,1,1.48-.61A2.2,2.2,0,0,1,80.94,6a1.72,1.72,0,0,1,.49.64A1.7,1.7,0,0,1,81.57,7.46ZM77.09,8.79c.32-.15,5.09,0,6,0s.47-2.77-1.11-3.9A4.31,4.31,0,0,0,75.7,6.14a4.1,4.1,0,0,0-.57,2.24,4.2,4.2,0,0,0,2.13,3.8c1.41.94,5.2.89,5.68-.56.58-1.85-.79-.82-1.28-.62a4.22,4.22,0,0,1-1.27.31C77.57,11.62,76.89,9.2,77.09,8.79Z"/><path class="cls-3" d="M58,7.46a2.09,2.09,0,0,1,.69-1.39,2.21,2.21,0,0,1,1.47-.56c1.1-.11,2.37.82,2.16,2ZM57.76,8.7h5.91c.69,0,.57-.41.52-.92a3.77,3.77,0,0,0-.64-1.94A4.07,4.07,0,0,0,62,4.46a4.15,4.15,0,0,0-4,.13,4.3,4.3,0,0,0-1.61,1.64,4.06,4.06,0,0,0-.49,2.21,3.78,3.78,0,0,0,.5,2.18A3.92,3.92,0,0,0,58,12.17c1.8,1.08,5.32.62,5.64-.61,0-.36.26-1.24-.32-1a7,7,0,0,1-2.23.78,3.13,3.13,0,0,1-2.36-.62C58.3,10.33,57.56,9.25,57.76,8.7Z"/><path class="cls-3" d="M86.36,12.59c.32-.31.27-.46.27-.92V10.43c0-1.64-.32-4.36,1.63-4.77.42-.1.52.25,1.06.15a2.42,2.42,0,0,0,.68-1c0-.79-1.27-.94-2.43-.43-.37.17-.67.72-.94.77,0-.46.1-.65-.22-1.06a2.86,2.86,0,0,0-1.16.36c-.52.24-.62.24-.52.87s0,4.88,0,5.9C84.78,12.76,84.78,12.71,86.36,12.59Z"/><path class="cls-3" d="M24.27,12.55v-.1a22.07,22.07,0,0,0,.12-3.81c0-1,.25-2.57,1.36-2.88.89-.31.94.51,1.53,0,1.36-1.4-.47-2-1.58-1.5s-1,.82-1.27.92a2,2,0,0,1,0-.6c0-.27-.12-.27-.22-.42a2.25,2.25,0,0,0-1.16.32c-.52.19-.69.24-.52.87a18.32,18.32,0,0,1,.1,2.87v2.83C22.74,12.59,22.53,12.71,24.27,12.55Z"/><path class="cls-4" d="M48,14.2a28.86,28.86,0,0,0-6.16,1.43c-.63.26-1.28.41-1.9.67-1.27.46-2.47.87-3.73,1.34-.42.15-3.43,1-3.95,1.13-2.55.61-6.37,1.33-8.8.25-1.16-.56-1.27,1.18,1.36,1.81a11.16,11.16,0,0,0,4.64-.2c1.27-.26,2.8-.72,4-1.08s2.64-.78,3.95-1.14c.32-.11.57-.21.94-.31l1.95-.57c.37-.1.64-.25,1-.36l2-.46c.36-.1.63-.2,1-.31a38.82,38.82,0,0,1,8.11-.82,19.29,19.29,0,0,1,2.37.26c1.27.15,1-.51.15-.93A13.69,13.69,0,0,0,48,14.2Z"/></g></svg>