<svg id="Layer_1" data-name="Layer 1" xmlns="http://www.w3.org/2000/svg" xmlns:xlink="http://www.w3.org/1999/xlink" viewBox="0 0 137 111"><defs><style>.cls-1{opacity:0.5;isolation:isolate;fill:url(#linear-gradient);}</style><linearGradient id="linear-gradient" x1="1.35" y1="59" x2="138.57" y2="55.03" gradientTransform="matrix(1, 0, 0, -1, 0, 112)" gradientUnits="userSpaceOnUse"><stop offset="0" stop-color="#13b17c"/><stop offset="1" stop-color="#09c"/></linearGradient></defs><path class="cls-1" d="M14.19,42.69,55.86,87.05,35.79,42.69ZM68.5,94.19l23.34-51.5H45.16ZM36,34.15,49.64,8.54H32.11L12.85,34.15Zm45.15,52.9,41.68-44.36H101.21ZM45.69,34.15H91.31L77.66,8.54H59.34Zm55.32,0h23.14L104.89,8.54H87.36Zm9.43-32.42,25.69,34.16a4.23,4.23,0,0,1-.27,5.47L71.64,109.67a4.37,4.37,0,0,1-6.28,0L1.14,41.36a4.23,4.23,0,0,1-.27-5.47L26.56,1.73A3.92,3.92,0,0,1,30,0H107A3.92,3.92,0,0,1,110.44,1.73Z"/></svg>