<svg id="Layer_1" data-name="Layer 1" xmlns="http://www.w3.org/2000/svg" viewBox="0 0 130 116.32"><defs><style>.cls-1{fill:#13b17c;opacity:0.15;isolation:isolate;}</style></defs><path class="cls-1" d="M105.39,56.68A32.47,32.47,0,0,0,65,6,32.49,32.49,0,0,0,24.61,56.68,46.17,46.17,0,0,0,0,97.71v14a4.65,4.65,0,0,0,4.64,4.66H125.36a4.65,4.65,0,0,0,4.64-4.66v-14A46.17,46.17,0,0,0,105.39,56.68ZM83.57,9.36a23.22,23.22,0,0,1,9.54,44.39L92,54.22a23,23,0,0,1-3.54,1.1c-.23,0-.46.08-.7.12a23.35,23.35,0,0,1-4.09.42c-.61,0-1.23,0-1.85-.1a3.3,3.3,0,0,1-.7,0,23.48,23.48,0,0,1-7.59-2.24c-.09,0-.19,0-.28-.08-.46-.22-.93-.42-1.34-.67a1.7,1.7,0,0,0,.1-.14,32.72,32.72,0,0,0,5-9.07l.14-.39a33.34,33.34,0,0,0,1.23-4.79c0-.24.08-.46.12-.72a33.4,33.4,0,0,0,.42-5,34.75,34.75,0,0,0-.42-5c0-.24-.07-.46-.12-.72a33.34,33.34,0,0,0-1.23-4.79L77,21.72a32.72,32.72,0,0,0-5-9.07,1.7,1.7,0,0,0-.1-.14A23.06,23.06,0,0,1,83.57,9.36ZM23.21,32.61A23.16,23.16,0,0,1,62.4,15.81c.26.26.53.52.79.79a23.57,23.57,0,0,1,2.2,2.68c.2.29.39.59.58.89a22.13,22.13,0,0,1,1.7,3.14c.12.27.21.53.31.8a21.93,21.93,0,0,1,1.15,3.72c0,.14,0,.28.07.42a21.85,21.85,0,0,1,0,8.75c0,.15,0,.29-.07.43A22.22,22.22,0,0,1,68,41.15c-.1.26-.19.53-.31.8A22,22,0,0,1,66,45.08c-.19.3-.38.61-.58.9a24.37,24.37,0,0,1-2.2,2.67c-.26.27-.53.53-.79.79A23.11,23.11,0,0,1,56,53.77a11.37,11.37,0,0,1-1.14.47,24.45,24.45,0,0,1-3.44,1.07l-.89.15a22.41,22.41,0,0,1-3.83.39h-.51a22.29,22.29,0,0,1-3.82-.39c-.29-.05-.6-.09-.89-.15A24.45,24.45,0,0,1,38,54.24l-1.15-.47A23.27,23.27,0,0,1,23.21,32.61ZM83.57,107H9.29v-9.3A37,37,0,0,1,34,62.67a32.37,32.37,0,0,0,24.9,0,38.79,38.79,0,0,1,4.52,2c1,.5,1.86,1.07,2.79,1.64.6.38,1.21.75,1.8,1.16.89.64,1.74,1.33,2.57,2,.53.47,1.06.93,1.56,1.4.77.72,1.49,1.49,2.18,2.27q.75.85,1.44,1.74c.61.79,1.19,1.59,1.73,2.41s.87,1.42,1.28,2.15.89,1.6,1.28,2.43.74,1.74,1.07,2.63.6,1.54.85,2.33c.32,1.07.55,2.19.78,3.31.14.66.32,1.3.42,2a39.79,39.79,0,0,1,.42,5.56V107Zm37.14,0H92.86v-9.3c0-1.45-.09-2.89-.22-4.32,0-.42-.1-.83-.15-1.25-.12-1-.26-2-.46-3.06-.08-.43-.17-.86-.26-1.29-.23-1-.49-2.07-.78-3.08-.1-.34-.19-.68-.29-1A46.11,46.11,0,0,0,85.11,72l-.18-.26q-1.2-1.78-2.56-3.45l0,0a42.73,42.73,0,0,0-3-3.33h.19a32.62,32.62,0,0,0,4,.27h.26a34.58,34.58,0,0,0,3.66-.23c.38,0,.75-.12,1.13-.18,1-.15,2-.35,2.93-.59l.83-.21A32.45,32.45,0,0,0,96,62.66a37,37,0,0,1,24.71,35.06V107Z"/></svg>