<svg id="Layer_1" data-name="Layer 1" xmlns="http://www.w3.org/2000/svg" viewBox="0 0 135 135"><defs><style>.cls-1{fill:#13b17c;opacity:0.2;isolation:isolate;}</style></defs><path class="cls-1" d="M67.5,0A67.5,67.5,0,1,0,135,67.5,67.58,67.58,0,0,0,67.5,0Zm0,10.38A57.12,57.12,0,1,1,10.38,67.5,57,57,0,0,1,67.5,10.38ZM67.5,26a25.81,25.81,0,0,0-16.71,45.6,36.35,36.35,0,0,0-19.64,32.29H41.54a26,26,0,1,1,51.92,0h10.39A36.35,36.35,0,0,0,84.21,71.56,25.81,25.81,0,0,0,67.5,26Zm0,10.39A15.58,15.58,0,1,1,51.92,51.92,15.5,15.5,0,0,1,67.5,36.35Z"/></svg>