<svg width="40" height="40" viewBox="0 0 40 40" fill="none" xmlns="http://www.w3.org/2000/svg">
<g clip-path="url(#clip0)">
<path d="M9.375 20.0003C9.375 18.0185 9.92102 16.162 10.8696 14.5724V7.82959H4.1268C1.45063 11.3052 0 15.5411 0 20.0003C0 24.4595 1.45063 28.6954 4.1268 32.171H10.8696V25.4282C9.92102 23.8386 9.375 21.9821 9.375 20.0003Z" fill="#FBBD00"/>
<path d="M20 30.6251L15.3125 35.3126L20 40.0001C24.4593 40.0001 28.6951 38.5495 32.1707 35.8733V29.1377H25.4351C23.8316 30.0897 21.9673 30.6251 20 30.6251Z" fill="#0F9D58"/>
<path d="M10.8698 25.4282L4.12695 32.171C4.6568 32.8592 5.23375 33.5181 5.85805 34.1425C9.63555 37.9199 14.658 40.0003 20.0002 40.0003V30.6253C16.1233 30.6253 12.7254 28.5378 10.8698 25.4282Z" fill="#31AA52"/>
<path d="M40 19.9996C40 18.7828 39.8898 17.5637 39.6725 16.3764L39.4966 15.4155H20V24.7905H29.4884C28.567 26.6234 27.1503 28.1188 25.435 29.1372L32.1706 35.8729C32.8587 35.343 33.5177 34.7661 34.1421 34.1418C37.9196 30.3642 40 25.3418 40 19.9996Z" fill="#3C79E6"/>
<path d="M27.513 12.487L28.3416 13.3155L34.9708 6.68648L34.1422 5.85789C30.3647 2.08039 25.3423 0 20 0L15.3125 4.6875L20 9.375C22.838 9.375 25.5062 10.4802 27.513 12.487Z" fill="#CF2D48"/>
<path d="M20.0002 9.375V0C14.658 0 9.63563 2.08039 5.85805 5.85781C5.23375 6.48211 4.6568 7.14109 4.12695 7.8293L10.8698 14.5721C12.7255 11.4625 16.1234 9.375 20.0002 9.375Z" fill="#EB4132"/>
</g>
<defs>
<clipPath id="clip0">
<rect width="40" height="40" fill="white"/>
</clipPath>
</defs>
</svg>
