<svg id="Layer_1" data-name="Layer 1" xmlns="http://www.w3.org/2000/svg" xmlns:xlink="http://www.w3.org/1999/xlink" viewBox="0 0 26 26"><defs><style>.cls-1{fill:url(#linear-gradient);}</style><linearGradient id="linear-gradient" x1="0.25" y1="15.3" x2="26.3" y2="14.69" gradientTransform="matrix(1, 0, 0, -1, 0, 28)" gradientUnits="userSpaceOnUse"><stop offset="0" stop-color="#13b17c"/><stop offset="1" stop-color="#09c"/></linearGradient></defs><path class="cls-1" d="M13,0A13,13,0,1,0,26,13,13,13,0,0,0,13,0Zm0,2A11,11,0,1,1,2,13,11,11,0,0,1,13,2Zm0,3a5,5,0,0,0-3.22,8.78A7,7,0,0,0,6,20H8a5,5,0,0,1,10,0h2a7,7,0,0,0-3.78-6.22A5,5,0,0,0,13,5Zm0,2a3,3,0,1,1-3,3A3,3,0,0,1,13,7Z"/></svg>